# xmcd
#
# Track frame offsets:
#	150
#	31027
#	74082
#	127228
#	177896
#	217015
#	252844
#	296280
#
# Disc length: 4431 seconds
#
# Revision: 0
# Processed by: cddbd v1.4PL0 Copyright (c) Steve Scherf et al.
# Submitted via: EasyCDDAExtractor 4.6.9.1
#
DISCID=7a114d08
DTITLE=Premiere Dance - 43
DYEAR=1900
DGENRE=
TTITLE0=Tina Ann-If You Want My Love(Mike Rizzo Mix)
TTITLE1=Celeste Prince-Inside Your Secret(Hex Hector Mix)
TTITLE2=Barry Harris And Pepper Mashay-I Got My Pride(Club Remix)
TTITLE3=Suzanne Palmer-I'll Hide You(Friburn And Urik Mix)
TTITLE4=Jessica Simpson-Irresistable(Hex Hector Mix)
TTITLE5=Geri Halliwell-Scream If You Wanna Go Faster(Sleaze Sisters Mix)
TTITLE6=Sheena Easton-Don't Leave Me This Way(Almighty Mix)
TTITLE7=Dario G-Say What's On Your Mind(Almighty Mix)
EXTD=
EXTT0=
EXTT1=
EXTT2=
EXTT3=
EXTT4=
EXTT5=
EXTT6=
EXTT7=
PLAYORDER=
